<svg width="800" height="400" xmlns="http://www.w3.org/2000/svg"><rect width="800" height="400" fill="#212529"/><line x1="0" y1="0" x2="0" y2="400" stroke="#2c3136" stroke-width="1"/><line x1="50" y1="0" x2="50" y2="400" stroke="#2c3136" stroke-width="1"/><line x1="100" y1="0" x2="100" y2="400" stroke="#2c3136" stroke-width="1"/><line x1="150" y1="0" x2="150" y2="400" stroke="#2c3136" stroke-width="1"/><line x1="200" y1="0" x2="200" y2="400" stroke="#2c3136" stroke-width="1"/><line x1="250" y1="0" x2="250" y2="400" stroke="#2c3136" stroke-width="1"/><line x1="300" y1="0" x2="300" y2="400" stroke="#2c3136" stroke-width="1"/><line x1="350" y1="0" x2="350" y2="400" stroke="#2c3136" stroke-width="1"/><line x1="400" y1="0" x2="400" y2="400" stroke="#2c3136" stroke-width="1"/><line x1="450" y1="0" x2="450" y2="400" stroke="#2c3136" stroke-width="1"/><line x1="500" y1="0" x2="500" y2="400" stroke="#2c3136" stroke-width="1"/><line x1="550" y1="0" x2="550" y2="400" stroke="#2c3136" stroke-width="1"/><line x1="600" y1="0" x2="600" y2="400" stroke="#2c3136" stroke-width="1"/><line x1="650" y1="0" x2="650" y2="400" stroke="#2c3136" stroke-width="1"/><line x1="700" y1="0" x2="700" y2="400" stroke="#2c3136" stroke-width="1"/><line x1="750" y1="0" x2="750" y2="400" stroke="#2c3136" stroke-width="1"/><line x1="0" y1="0" x2="800" y2="0" stroke="#2c3136" stroke-width="1"/><line x1="0" y1="50" x2="800" y2="50" stroke="#2c3136" stroke-width="1"/><line x1="0" y1="100" x2="800" y2="100" stroke="#2c3136" stroke-width="1"/><line x1="0" y1="150" x2="800" y2="150" stroke="#2c3136" stroke-width="1"/><line x1="0" y1="200" x2="800" y2="200" stroke="#2c3136" stroke-width="1"/><line x1="0" y1="250" x2="800" y2="250" stroke="#2c3136" stroke-width="1"/><line x1="0" y1="300" x2="800" y2="300" stroke="#2c3136" stroke-width="1"/><line x1="0" y1="350" x2="800" y2="350" stroke="#2c3136" stroke-width="1"/><path d="M 0.0,210.0 L 16.0,207.93346653975306 L 32.0,210.47091711543254 L 48.0,210.23212366975176 L 64.0,249.86780454497614 L 80.0,238.0735492403948 L 96.0,233.6019542983613 L 112.0,250.272486499423 L 128.0,267.97868015207524 L 144.0,232.69238154390976 L 160.0,239.4648713412841 L 176.0,233.42482019097952 L 192.0,214.77315902755754 L 208.0,209.7750685910732 L 224.0,213.74940750779524 L 240.0,198.05600040299336 L 256.0,181.081292828621 L 272.0,195.22294489865843 L 288.0,177.8739778352574 L 304.0,185.40710545286404 L 320.0,156.1598752346036 L 336.0,170.4212113793206 L 352.0,166.4198963055242 L 368.0,161.31544981832678 L 384.0,157.19176955820797 L 400.0,151.05378626684308 L 416.0,156.82726721399234 L 432.0,151.36177562220064 L 448.0,169.43666810638393 L 464.0,176.76989102931213 L 480.0,190.0292250900537 L 496.0,210.84552985912518 L 512.0,186.8274602425247 L 528.0,215.5770681756689 L 544.0,233.7056675569304 L 560.0,225.84932993593947 L 576.0,248.68339319245766 L 592.0,252.93540479058134 L 608.0,236.3959836015743 L 624.0,254.92716726873024 L 640.0,251.4679123311691 L 656.0,263.03652783398866 L 672.0,223.72994540441402 L 688.0,217.71985489370567 L 704.0,233.24585964458808 L 720.0,232.60592426208783 L 736.0,225.1444957050124 L 752.0,211.2387712726679 L 768.0,203.28366093885103 L 784.0,164.6760435374036" fill="none" stroke="#0d6efd" stroke-width="2"/><circle cx="0.0" cy="210.0" r="3" fill="#0d6efd"/><circle cx="16.0" cy="207.93346653975306" r="3" fill="#0d6efd"/><circle cx="32.0" cy="210.47091711543254" r="3" fill="#0d6efd"/><circle cx="48.0" cy="210.23212366975176" r="3" fill="#0d6efd"/><circle cx="64.0" cy="249.86780454497614" r="3" fill="#0d6efd"/><circle cx="80.0" cy="238.0735492403948" r="3" fill="#0d6efd"/><circle cx="96.0" cy="233.6019542983613" r="3" fill="#0d6efd"/><circle cx="112.0" cy="250.272486499423" r="3" fill="#0d6efd"/><circle cx="128.0" cy="267.97868015207524" r="3" fill="#0d6efd"/><circle cx="144.0" cy="232.69238154390976" r="3" fill="#0d6efd"/><circle cx="160.0" cy="239.4648713412841" r="3" fill="#0d6efd"/><circle cx="176.0" cy="233.42482019097952" r="3" fill="#0d6efd"/><circle cx="192.0" cy="214.77315902755754" r="3" fill="#0d6efd"/><circle cx="208.0" cy="209.7750685910732" r="3" fill="#0d6efd"/><circle cx="224.0" cy="213.74940750779524" r="3" fill="#0d6efd"/><circle cx="240.0" cy="198.05600040299336" r="3" fill="#0d6efd"/><circle cx="256.0" cy="181.081292828621" r="3" fill="#0d6efd"/><circle cx="272.0" cy="195.22294489865843" r="3" fill="#0d6efd"/><circle cx="288.0" cy="177.8739778352574" r="3" fill="#0d6efd"/><circle cx="304.0" cy="185.40710545286404" r="3" fill="#0d6efd"/><circle cx="320.0" cy="156.1598752346036" r="3" fill="#0d6efd"/><circle cx="336.0" cy="170.4212113793206" r="3" fill="#0d6efd"/><circle cx="352.0" cy="166.4198963055242" r="3" fill="#0d6efd"/><circle cx="368.0" cy="161.31544981832678" r="3" fill="#0d6efd"/><circle cx="384.0" cy="157.19176955820797" r="3" fill="#0d6efd"/><circle cx="400.0" cy="151.05378626684308" r="3" fill="#0d6efd"/><circle cx="416.0" cy="156.82726721399234" r="3" fill="#0d6efd"/><circle cx="432.0" cy="151.36177562220064" r="3" fill="#0d6efd"/><circle cx="448.0" cy="169.43666810638393" r="3" fill="#0d6efd"/><circle cx="464.0" cy="176.76989102931213" r="3" fill="#0d6efd"/><circle cx="480.0" cy="190.0292250900537" r="3" fill="#0d6efd"/><circle cx="496.0" cy="210.84552985912518" r="3" fill="#0d6efd"/><circle cx="512.0" cy="186.8274602425247" r="3" fill="#0d6efd"/><circle cx="528.0" cy="215.5770681756689" r="3" fill="#0d6efd"/><circle cx="544.0" cy="233.7056675569304" r="3" fill="#0d6efd"/><circle cx="560.0" cy="225.84932993593947" r="3" fill="#0d6efd"/><circle cx="576.0" cy="248.68339319245766" r="3" fill="#0d6efd"/><circle cx="592.0" cy="252.93540479058134" r="3" fill="#0d6efd"/><circle cx="608.0" cy="236.3959836015743" r="3" fill="#0d6efd"/><circle cx="624.0" cy="254.92716726873024" r="3" fill="#0d6efd"/><circle cx="640.0" cy="251.4679123311691" r="3" fill="#0d6efd"/><circle cx="656.0" cy="263.03652783398866" r="3" fill="#0d6efd"/><circle cx="672.0" cy="223.72994540441402" r="3" fill="#0d6efd"/><circle cx="688.0" cy="217.71985489370567" r="3" fill="#0d6efd"/><circle cx="704.0" cy="233.24585964458808" r="3" fill="#0d6efd"/><circle cx="720.0" cy="232.60592426208783" r="3" fill="#0d6efd"/><circle cx="736.0" cy="225.1444957050124" r="3" fill="#0d6efd"/><circle cx="752.0" cy="211.2387712726679" r="3" fill="#0d6efd"/><circle cx="768.0" cy="203.28366093885103" r="3" fill="#0d6efd"/><circle cx="784.0" cy="164.6760435374036" r="3" fill="#0d6efd"/></svg>